<svg id="efsS9ctYVuX1" xmlns="http://www.w3.org/2000/svg" xmlns:xlink="http://www.w3.org/1999/xlink" viewBox="0 0 512 512" shape-rendering="geometricPrecision" text-rendering="geometricPrecision"><style><![CDATA[#efsS9ctYVuX2_tr {animation: efsS9ctYVuX2_tr__tr 1000ms linear infinite normal forwards}@keyframes efsS9ctYVuX2_tr__tr { 0% {transform: translate(256px,256px) rotate(0deg);animation-timing-function: cubic-bezier(0.445,0.05,0.55,0.95)} 100% {transform: translate(256px,256px) rotate(0deg)}} #efsS9ctYVuX2_ts {animation: efsS9ctYVuX2_ts__ts 1000ms linear infinite normal forwards}@keyframes efsS9ctYVuX2_ts__ts { 0% {transform: scale(1.32,1.32);animation-timing-function: cubic-bezier(0.445,0.05,0.55,0.95)} 50% {transform: scale(1.57,1.57);animation-timing-function: cubic-bezier(0.445,0.05,0.55,0.95)} 100% {transform: scale(1.32,1.32)}} #efsS9ctYVuX7_tr {animation: efsS9ctYVuX7_tr__tr 1000ms linear infinite normal forwards}@keyframes efsS9ctYVuX7_tr__tr { 0% {transform: translate(389.381921px,252.753038px) rotate(0deg);animation-timing-function: cubic-bezier(0.39,0.575,0.565,1)} 20% {transform: translate(389.381921px,252.753038px) rotate(32deg);animation-timing-function: cubic-bezier(0.39,0.575,0.565,1)} 60% {transform: translate(389.381921px,252.753038px) rotate(-19.004759deg);animation-timing-function: cubic-bezier(0.39,0.575,0.565,1)} 100% {transform: translate(389.381921px,252.753038px) rotate(0deg)}} #efsS9ctYVuX7_ts {animation: efsS9ctYVuX7_ts__ts 1000ms linear infinite normal forwards}@keyframes efsS9ctYVuX7_ts__ts { 0% {transform: scale(1.32,1.32);animation-timing-function: cubic-bezier(0.445,0.05,0.55,0.95)} 50% {transform: scale(1.57,1.57);animation-timing-function: cubic-bezier(0.445,0.05,0.55,0.95)} 100% {transform: scale(1.32,1.32)}}]]></style><g id="efsS9ctYVuX2_tr" transform="translate(256,256) rotate(0)"><g id="efsS9ctYVuX2_ts" transform="scale(1.32,1.32)"><g id="efsS9ctYVuX2" transform="translate(-255.999996,-255.999997)"><path id="efsS9ctYVuX3" d="M453.31,302.12C443.94,313.29,432.17,321.33,419.31,327.85C399.15,338.06,377.57,343.42,355.21,345.59C323.28,348.69,292.06,345.43,261.87,334.11C253.433096,330.996303,245.334757,327.032573,237.7,322.28C235.94,321.16,234.44,320.55,232.21,321.49C220.813707,326.294436,208.466706,328.418983,196.12,327.7C193.96,326.6,194.39,325.48,195.81,323.92C200.474544,318.880403,203.766395,312.727122,205.37,306.05C206.93,299.53,206.54,293.58,202.57,287.53C190.3,268.84,183.74,247.93,180.57,225.96C175.76,192.7,178.62,160.17,191.06,128.78C199.13,108.44,211.06,90.86,228.89,77.67C230.75,76.28,234.01,74.29,235.89,72.99L241.35,72.99C288.35,72.99,334.98,73.92,381.93,74.28C397.13,74.4,411.93,77.16,424.93,86.22C437.014803,94.395428,445.756695,106.644015,449.56,120.73C451.814255,128.730655,452.935174,137.007954,452.89,145.32C452.75,194.61,452.82,243.89,452.84,293.18C452.88,296.16,453.16,299.14,453.31,302.12Z" transform="matrix(1 0 0 1 -43.913165 28.486599)" fill="rgb(255,255,255)" stroke="none" stroke-width="1"/><path id="efsS9ctYVuX4" d="M233.12,73C233.64,73,235.38,73,235.9,73C235.488838,73.275568,235.061392,73.526025,234.62,73.75C232.7,75.05,230.72,76.29,228.86,77.68C211.07,90.86,199.1,108.44,191,128.78C178.56,160.17,175.7,192.7,180.51,225.96C183.7,247.96,190.26,268.84,202.51,287.53C206.51,293.58,206.87,299.53,205.31,306.05C203.706395,312.727122,200.414544,318.880403,195.75,323.92C194.33,325.48,193.9,326.6,196.06,327.7C196.27,328.95,197.24,329.7,198.06,330.49L242,375.49C242.93,376.49,243.87,377.39,244.82,378.32C245.578469,379.003496,246.007996,379.979031,246,381L210.76,381.05C194.91,380.67,180.96,375.7,169.03,364.89C157.79,354.71,150.21,342.59,147.51,327.63C146.581296,322.887548,146.075974,318.071932,146,313.24C145.89,256,145.77,198.75,146,141.51C146.07,127.19,149.52,113.51,158.41,101.73C171.05,85.1,187.28,75,208.55,73.87C209.728386,73.818526,210.901474,73.681498,212.06,73.46C219.24,73.2,226.05,73.09,233.12,73Z" transform="matrix(1 0 0 1 -43.913171 28.486595)" fill="rgb(4,105,253)" stroke="none" stroke-width="1"/><path id="efsS9ctYVuX5" d="M246,381C246.00484,379.98754,245.579551,379.020642,244.83,378.34C243.88,377.41,242.94,376.46,242.01,375.51L198.07,330.51C197.27,329.69,196.3,328.97,196.07,327.72C208.416706,328.438983,220.763707,326.314436,232.16,321.51C234.39,320.57,235.89,321.18,237.65,322.3C245.284757,327.052573,253.383096,331.016303,261.82,334.13C292.01,345.45,323.23,348.71,355.16,345.61C377.52,343.44,399.1,338.08,419.26,327.87C432.13,321.35,443.9,313.31,453.26,302.14C454.87,310.19,453.31,318.14,452.35,326.08C452.15,327.7,451.62,329.29,451.85,330.95L451.85,330.95C450.77,331.72,450.78,332.84,450.85,333.95L450.85,333.95C449.77,334.74,449.73,335.87,449.85,337.05C445.12,350.77,436.13,361.28,424.65,369.7C415.2,376.7,404.26,379.7,392.65,380.99C381.86,382.22,371.07,381.84,360.27,381.86Q303.1,381.97,245.94,381.86C246,381.56,246,381.26,246,381Z" transform="matrix(1 0 0 1 -43.913171 28.486595)" fill="rgb(4,91,220)" stroke="none" stroke-width="1"/><path id="efsS9ctYVuX6" d="M246,381C246,381.31,246,381.61,246,381.92L214.46,382.02C213.135971,382.120788,211.817045,381.768134,210.72,381.02Z" transform="matrix(1 0 0 1 -43.913171 28.486595)" fill="rgb(26,111,244)" stroke="none" stroke-width="1"/></g></g></g><g id="efsS9ctYVuX7_tr" transform="translate(389.381921,252.753038) rotate(0)"><g id="efsS9ctYVuX7_ts" transform="scale(1.32,1.32)"><g id="efsS9ctYVuX7" transform="translate(-356.759424,-249.12491)"><path id="efsS9ctYVuX8" d="M430,225L430,251L216,251L216,173L430,173L430,217C427.08,216.56,427.48,213.86,426.82,212.05C419.82,192.64,397.99,188.22,383.49,198.69C369.69,208.69,367.94,236.61,388.87,245.91C404.09,252.67,420.39,245.91,426.41,230.27C427.16,228.32,426.84,225.4,430,225Z" transform="matrix(1 0 0 1 -43.913171 28.486595)" fill="rgb(250,251,254)" stroke="none" stroke-width="1"/><path id="efsS9ctYVuX9" d="M429.6,225.15C428.93,226.77,428.6,228.15,428.02,229.86C424.270906,241.280375,413.937238,249.260439,401.94,250C389.893313,250.656404,378.724633,243.700963,374,232.6C367.69,217.35,373.51,199.52,390.15,193.48C407.15,187.31,422.95,196.48,428.15,212.12C428.69,213.77,428.85,215.48,429.47,217.12C429.902052,219.77624,429.945843,222.481166,429.6,225.15Z" transform="matrix(1 0 0 1 -43.913171 28.486595)" fill="rgb(5,104,254)" stroke="none" stroke-width="1"/><path id="efsS9ctYVuX10" d="M260.18,187.68L219.37,187.68L219.37,175.46L277.59,175.46C278.64,180.12,277.08,183.89,274.29,187.4Q255.81,210.67,237.37,234C236.58,235,235.94,236.08,234.72,237.9L278,237.9C278,240.4,278.14,242.37,278,244.3C277.76,247.12,276.29,249.09,273.28,249.1C254.83,249.15,236.37,249.1,217.75,249.1C216.28,244.29,217.94,240.71,220.64,237.35Q237.56,216.35,254.42,195.35C256.1,193.15,257.71,190.92,260.18,187.68Z" transform="matrix(1 0 0 1 -43.913171 28.486595)" fill="rgb(8,107,254)" stroke="none" stroke-width="1"/><path id="efsS9ctYVuX11" d="M327.36,196.83L328.64,193.62L338.89,193.62L338.89,249C334.17,249.56,329.68,250.27,327.42,244.89C308.42,252.2,295.92,249.75,287.07,237.14C279.756924,226.485009,280.355867,212.281495,288.54,202.28C297.88,191,311.22,189.07,327.36,196.83Z" transform="matrix(1 0 0 1 -43.913169 27.845085)" fill="rgb(5,104,254)" stroke="none" stroke-width="1"/><path id="efsS9ctYVuX12" d="M362,249L351.77,249C351.18,247.37,350.09,245.76,350.09,244.14C350.09,221.14,350.09,198.22,350.2,175.26C350.2,175.12,350.35,174.98,350.59,174.56L362,174.56Z" transform="matrix(1 0 0 1 -43.913171 28.486595)" fill="rgb(2,103,254)" stroke="none" stroke-width="1"/><path id="efsS9ctYVuX13" d="M400.59,238.24C395.954936,238.342377,391.474614,236.570348,388.163554,233.325171C384.852493,230.079993,382.990788,225.636185,383,221C382.914396,211.362631,390.657631,203.480604,400.295,203.395C409.932369,203.309396,417.814396,211.052631,417.9,220.69C417.958793,225.320736,416.161697,229.782361,412.909631,233.079516C409.657565,236.376672,405.221106,238.235029,400.59,238.24Z" transform="matrix(1 0 0 1 -43.913171 28.486595)" fill="rgb(250,251,254)" stroke="none" stroke-width="1"/><path id="efsS9ctYVuX14" d="M327.89,220.9C327.919718,225.524731,326.06394,229.961958,322.750584,233.188518C319.437228,236.415078,314.952313,238.152443,310.33,238C305.717615,237.913304,301.328681,235.997469,298.129133,232.674141C294.929586,229.350813,293.181643,224.892354,293.27,220.28C293.435685,210.719951,301.319951,203.104315,310.88,203.27C320.440049,203.435685,328.055685,211.319951,327.89,220.88Z" transform="matrix(1 0 0 1 -43.913171 28.486595)" fill="rgb(250,251,254)" stroke="none" stroke-width="1"/></g></g></g></svg>